<?xml version="1.0" encoding="UTF-8" standalone="no"?><!DOCTYPE svg PUBLIC "-//W3C//DTD SVG 1.1//EN" "http://www.w3.org/Graphics/SVG/1.1/DTD/svg11.dtd"><svg width="100%" height="100%" viewBox="0 0 52 52" version="1.1" xmlns="http://www.w3.org/2000/svg" xmlns:xlink="http://www.w3.org/1999/xlink" xml:space="preserve" xmlns:serif="http://www.serif.com/" style="fill-rule:evenodd;clip-rule:evenodd;"><rect x="0" y="0" width="52" height="52" style="fill:none;"/><clipPath id="_clip1"><rect x="0" y="0" width="52" height="52"/></clipPath><g clip-path="url(#_clip1)"><path d="M36,18l0,16c0,1.104 -0.896,2 -2,2l-16,0c-1.104,0 -2,-0.896 -2,-2l0,-16c0,-1.104 0.896,-2 2,-2l16,0c1.104,0 2,0.896 2,2Z" style="fill:#2563eb;fill-opacity:0.2;stroke:#2563eb;stroke-width:3px;"/><path d="M52,8l0,36c0,2.208 -1.792,4 -4,4l-44,0c-2.208,0 -4,-1.792 -4,-4l0,-36c0,-2.208 1.792,-4 4,-4l44,0c2.208,0 4,1.792 4,4Z" style="fill:#2563eb;fill-opacity:0.2;"/><path d="M52,8l0,36c0,2.208 -1.792,4 -4,4l-44,0c-2.208,0 -4,-1.792 -4,-4l0,-36c0,-2.208 1.792,-4 4,-4l44,0c2.208,0 4,1.792 4,4Zm-48,-0l0,36l44,0l0,-36l-44,-0Z" style="fill:#2563eb;fill-opacity:0.2;stroke:#808080;stroke-opacity:0;stroke-width:1px;stroke-linejoin:round;stroke-miterlimit:2;"/><path d="M10,6l-8,0l0,8" style="fill:none;fill-rule:nonzero;stroke:#2563eb;stroke-width:4px;stroke-linecap:round;stroke-linejoin:round;"/><path d="M42,6l8,0l0,8" style="fill:none;fill-rule:nonzero;stroke:#2563eb;stroke-width:4px;stroke-linecap:round;stroke-linejoin:round;"/><path d="M10,46l-8,0l0,-8" style="fill:none;fill-rule:nonzero;stroke:#2563eb;stroke-width:4px;stroke-linecap:round;stroke-linejoin:round;"/><path d="M42,46l8,0l0,-8" style="fill:none;fill-rule:nonzero;stroke:#2563eb;stroke-width:4px;stroke-linecap:round;stroke-linejoin:round;"/></g></svg>